<svg xmlns="http://www.w3.org/2000/svg" width="217" height="214" fill="none" viewBox="0 0 217 214"><mask id="mask0" width="274" height="274" x="-57" y="0" mask-type="alpha" maskUnits="userSpaceOnUse"><circle cx="80" cy="137" r="137" fill="#fff" fill-opacity=".5"/></mask><g mask="url(#mask0)"><circle cx="14.874" cy="6.005" r="6.005" fill="#fff" fill-opacity=".5"/><circle cx="14.874" cy="43.234" r="6.005" fill="#fff" fill-opacity=".5"/><circle cx="14.874" cy="80.464" r="6.005" fill="#fff" fill-opacity=".5"/><circle cx="14.874" cy="117.693" r="6.005" fill="#fff" fill-opacity=".5"/><circle cx="14.874" cy="154.923" r="6.005" fill="#fff" fill-opacity=".5"/><circle cx="14.874" cy="192.152" r="6.005" fill="#fff" fill-opacity=".5"/><circle cx="48.501" cy="6.005" r="6.005" fill="#fff" fill-opacity=".5"/><circle cx="48.501" cy="43.234" r="6.005" fill="#fff" fill-opacity=".5"/><circle cx="48.501" cy="80.464" r="6.005" fill="#fff" fill-opacity=".5"/><circle cx="48.501" cy="117.693" r="6.005" fill="#fff" fill-opacity=".5"/><circle cx="48.501" cy="154.923" r="6.005" fill="#fff" fill-opacity=".5"/><circle cx="48.501" cy="192.152" r="6.005" fill="#fff" fill-opacity=".5"/><circle cx="82.128" cy="6.005" r="6.005" fill="#fff" fill-opacity=".5"/><circle cx="82.128" cy="43.234" r="6.005" fill="#fff" fill-opacity=".5"/><circle cx="82.128" cy="80.464" r="6.005" fill="#fff" fill-opacity=".5"/><circle cx="82.128" cy="117.693" r="6.005" fill="#fff" fill-opacity=".5"/><circle cx="82.128" cy="154.923" r="6.005" fill="#fff" fill-opacity=".5"/><circle cx="82.128" cy="192.152" r="6.005" fill="#fff" fill-opacity=".5"/><circle cx="115.754" cy="6.005" r="6.005" fill="#fff" fill-opacity=".5"/><circle cx="115.754" cy="43.234" r="6.005" fill="#fff" fill-opacity=".5"/><circle cx="115.754" cy="80.464" r="6.005" fill="#fff" fill-opacity=".5"/><circle cx="115.754" cy="117.693" r="6.005" fill="#fff" fill-opacity=".5"/><circle cx="115.754" cy="154.923" r="6.005" fill="#fff" fill-opacity=".5"/><circle cx="115.754" cy="192.152" r="6.005" fill="#fff" fill-opacity=".5"/><circle cx="149.381" cy="6.005" r="6.005" fill="#fff" fill-opacity=".5"/><circle cx="149.381" cy="43.234" r="6.005" fill="#fff" fill-opacity=".5"/><circle cx="149.381" cy="80.464" r="6.005" fill="#fff" fill-opacity=".5"/><circle cx="149.381" cy="117.693" r="6.005" fill="#fff" fill-opacity=".5"/><circle cx="149.381" cy="154.923" r="6.005" fill="#fff" fill-opacity=".5"/><circle cx="149.381" cy="192.152" r="6.005" fill="#fff" fill-opacity=".5"/><circle cx="183.008" cy="6.005" r="6.005" fill="#fff" fill-opacity=".5"/><circle cx="183.008" cy="43.234" r="6.005" fill="#fff" fill-opacity=".5"/><circle cx="183.008" cy="80.464" r="6.005" fill="#fff" fill-opacity=".5"/><circle cx="183.008" cy="117.693" r="6.005" fill="#fff" fill-opacity=".5"/><circle cx="183.008" cy="154.923" r="6.005" fill="#fff" fill-opacity=".5"/><circle cx="183.008" cy="192.152" r="6.005" fill="#fff" fill-opacity=".5"/><circle cx="216.634" cy="6.005" r="6.005" fill="#fff" fill-opacity=".5"/><circle cx="216.634" cy="43.234" r="6.005" fill="#fff" fill-opacity=".5"/><circle cx="216.634" cy="80.464" r="6.005" fill="#fff" fill-opacity=".5"/><circle cx="216.634" cy="117.693" r="6.005" fill="#fff" fill-opacity=".5"/><circle cx="216.634" cy="154.923" r="6.005" fill="#fff" fill-opacity=".5"/><circle cx="216.634" cy="192.152" r="6.005" fill="#fff" fill-opacity=".5"/></g></svg>